<mxfile host="app.diagrams.net" modified="2024-03-22T09:42:49.144Z" agent="Mozilla/5.0 (Windows NT 10.0; Win64; x64) AppleWebKit/537.36 (KHTML, like Gecko) Chrome/122.0.0.0 Safari/537.36" etag="nb7wE6AZtlX4n_qnviPf" version="24.0.7" type="github">
  <diagram name="PÃ¡gina-1" id="fcTB6oVvxysPYjXmOKOU">
    <mxGraphModel dx="1050" dy="617" grid="1" gridSize="10" guides="1" tooltips="1" connect="1" arrows="1" fold="1" page="1" pageScale="1" pageWidth="827" pageHeight="1169" math="0" shadow="0">
      <root>
        <mxCell id="0" />
        <mxCell id="1" parent="0" />
        <mxCell id="Q639SRxSiKA4uDhJdXRe-1" value="program" style="swimlane;fontStyle=1;align=center;verticalAlign=top;childLayout=stackLayout;horizontal=1;startSize=26;horizontalStack=0;resizeParent=1;resizeParentMax=0;resizeLast=0;collapsible=1;marginBottom=0;whiteSpace=wrap;html=1;" vertex="1" parent="1">
          <mxGeometry y="40" width="160" height="86" as="geometry" />
        </mxCell>
        <mxCell id="Q639SRxSiKA4uDhJdXRe-2" value="+ field: type" style="text;strokeColor=none;fillColor=none;align=left;verticalAlign=top;spacingLeft=4;spacingRight=4;overflow=hidden;rotatable=0;points=[[0,0.5],[1,0.5]];portConstraint=eastwest;whiteSpace=wrap;html=1;" vertex="1" parent="Q639SRxSiKA4uDhJdXRe-1">
          <mxGeometry y="26" width="160" height="26" as="geometry" />
        </mxCell>
        <mxCell id="Q639SRxSiKA4uDhJdXRe-3" value="" style="line;strokeWidth=1;fillColor=none;align=left;verticalAlign=middle;spacingTop=-1;spacingLeft=3;spacingRight=3;rotatable=0;labelPosition=right;points=[];portConstraint=eastwest;strokeColor=inherit;" vertex="1" parent="Q639SRxSiKA4uDhJdXRe-1">
          <mxGeometry y="52" width="160" height="8" as="geometry" />
        </mxCell>
        <mxCell id="Q639SRxSiKA4uDhJdXRe-4" value="+ method(type): type" style="text;strokeColor=none;fillColor=none;align=left;verticalAlign=top;spacingLeft=4;spacingRight=4;overflow=hidden;rotatable=0;points=[[0,0.5],[1,0.5]];portConstraint=eastwest;whiteSpace=wrap;html=1;" vertex="1" parent="Q639SRxSiKA4uDhJdXRe-1">
          <mxGeometry y="60" width="160" height="26" as="geometry" />
        </mxCell>
        <mxCell id="Q639SRxSiKA4uDhJdXRe-5" value="Animal" style="swimlane;fontStyle=1;align=center;verticalAlign=top;childLayout=stackLayout;horizontal=1;startSize=26;horizontalStack=0;resizeParent=1;resizeParentMax=0;resizeLast=0;collapsible=1;marginBottom=0;whiteSpace=wrap;html=1;" vertex="1" parent="1">
          <mxGeometry x="230" y="40" width="160" height="86" as="geometry" />
        </mxCell>
        <mxCell id="Q639SRxSiKA4uDhJdXRe-6" value="+ field: type" style="text;strokeColor=none;fillColor=none;align=left;verticalAlign=top;spacingLeft=4;spacingRight=4;overflow=hidden;rotatable=0;points=[[0,0.5],[1,0.5]];portConstraint=eastwest;whiteSpace=wrap;html=1;" vertex="1" parent="Q639SRxSiKA4uDhJdXRe-5">
          <mxGeometry y="26" width="160" height="26" as="geometry" />
        </mxCell>
        <mxCell id="Q639SRxSiKA4uDhJdXRe-7" value="" style="line;strokeWidth=1;fillColor=none;align=left;verticalAlign=middle;spacingTop=-1;spacingLeft=3;spacingRight=3;rotatable=0;labelPosition=right;points=[];portConstraint=eastwest;strokeColor=inherit;" vertex="1" parent="Q639SRxSiKA4uDhJdXRe-5">
          <mxGeometry y="52" width="160" height="8" as="geometry" />
        </mxCell>
        <mxCell id="Q639SRxSiKA4uDhJdXRe-8" value="+ Som() : virtual string" style="text;strokeColor=none;fillColor=none;align=left;verticalAlign=top;spacingLeft=4;spacingRight=4;overflow=hidden;rotatable=0;points=[[0,0.5],[1,0.5]];portConstraint=eastwest;whiteSpace=wrap;html=1;" vertex="1" parent="Q639SRxSiKA4uDhJdXRe-5">
          <mxGeometry y="60" width="160" height="26" as="geometry" />
        </mxCell>
        <mxCell id="Q639SRxSiKA4uDhJdXRe-9" value="Cao:Animal" style="swimlane;fontStyle=1;align=center;verticalAlign=top;childLayout=stackLayout;horizontal=1;startSize=26;horizontalStack=0;resizeParent=1;resizeParentMax=0;resizeLast=0;collapsible=1;marginBottom=0;whiteSpace=wrap;html=1;" vertex="1" parent="1">
          <mxGeometry x="430" y="40" width="160" height="86" as="geometry" />
        </mxCell>
        <mxCell id="Q639SRxSiKA4uDhJdXRe-10" value="+ field: type" style="text;strokeColor=none;fillColor=none;align=left;verticalAlign=top;spacingLeft=4;spacingRight=4;overflow=hidden;rotatable=0;points=[[0,0.5],[1,0.5]];portConstraint=eastwest;whiteSpace=wrap;html=1;" vertex="1" parent="Q639SRxSiKA4uDhJdXRe-9">
          <mxGeometry y="26" width="160" height="26" as="geometry" />
        </mxCell>
        <mxCell id="Q639SRxSiKA4uDhJdXRe-11" value="" style="line;strokeWidth=1;fillColor=none;align=left;verticalAlign=middle;spacingTop=-1;spacingLeft=3;spacingRight=3;rotatable=0;labelPosition=right;points=[];portConstraint=eastwest;strokeColor=inherit;" vertex="1" parent="Q639SRxSiKA4uDhJdXRe-9">
          <mxGeometry y="52" width="160" height="8" as="geometry" />
        </mxCell>
        <mxCell id="Q639SRxSiKA4uDhJdXRe-12" value="+ Som() : override string" style="text;strokeColor=none;fillColor=none;align=left;verticalAlign=top;spacingLeft=4;spacingRight=4;overflow=hidden;rotatable=0;points=[[0,0.5],[1,0.5]];portConstraint=eastwest;whiteSpace=wrap;html=1;" vertex="1" parent="Q639SRxSiKA4uDhJdXRe-9">
          <mxGeometry y="60" width="160" height="26" as="geometry" />
        </mxCell>
        <mxCell id="Q639SRxSiKA4uDhJdXRe-13" value="Gato:Animal" style="swimlane;fontStyle=1;align=center;verticalAlign=top;childLayout=stackLayout;horizontal=1;startSize=26;horizontalStack=0;resizeParent=1;resizeParentMax=0;resizeLast=0;collapsible=1;marginBottom=0;whiteSpace=wrap;html=1;" vertex="1" parent="1">
          <mxGeometry x="650" y="40" width="160" height="86" as="geometry" />
        </mxCell>
        <mxCell id="Q639SRxSiKA4uDhJdXRe-14" value="+ field: type" style="text;strokeColor=none;fillColor=none;align=left;verticalAlign=top;spacingLeft=4;spacingRight=4;overflow=hidden;rotatable=0;points=[[0,0.5],[1,0.5]];portConstraint=eastwest;whiteSpace=wrap;html=1;" vertex="1" parent="Q639SRxSiKA4uDhJdXRe-13">
          <mxGeometry y="26" width="160" height="26" as="geometry" />
        </mxCell>
        <mxCell id="Q639SRxSiKA4uDhJdXRe-15" value="" style="line;strokeWidth=1;fillColor=none;align=left;verticalAlign=middle;spacingTop=-1;spacingLeft=3;spacingRight=3;rotatable=0;labelPosition=right;points=[];portConstraint=eastwest;strokeColor=inherit;" vertex="1" parent="Q639SRxSiKA4uDhJdXRe-13">
          <mxGeometry y="52" width="160" height="8" as="geometry" />
        </mxCell>
        <mxCell id="Q639SRxSiKA4uDhJdXRe-16" value="+ Som() : override string" style="text;strokeColor=none;fillColor=none;align=left;verticalAlign=top;spacingLeft=4;spacingRight=4;overflow=hidden;rotatable=0;points=[[0,0.5],[1,0.5]];portConstraint=eastwest;whiteSpace=wrap;html=1;" vertex="1" parent="Q639SRxSiKA4uDhJdXRe-13">
          <mxGeometry y="60" width="160" height="26" as="geometry" />
        </mxCell>
        <mxCell id="Q639SRxSiKA4uDhJdXRe-17" value="Morcego:Animal" style="swimlane;fontStyle=1;align=center;verticalAlign=top;childLayout=stackLayout;horizontal=1;startSize=26;horizontalStack=0;resizeParent=1;resizeParentMax=0;resizeLast=0;collapsible=1;marginBottom=0;whiteSpace=wrap;html=1;" vertex="1" parent="1">
          <mxGeometry x="130" y="320" width="160" height="86" as="geometry" />
        </mxCell>
        <mxCell id="Q639SRxSiKA4uDhJdXRe-18" value="+ field: type" style="text;strokeColor=none;fillColor=none;align=left;verticalAlign=top;spacingLeft=4;spacingRight=4;overflow=hidden;rotatable=0;points=[[0,0.5],[1,0.5]];portConstraint=eastwest;whiteSpace=wrap;html=1;" vertex="1" parent="Q639SRxSiKA4uDhJdXRe-17">
          <mxGeometry y="26" width="160" height="26" as="geometry" />
        </mxCell>
        <mxCell id="Q639SRxSiKA4uDhJdXRe-19" value="" style="line;strokeWidth=1;fillColor=none;align=left;verticalAlign=middle;spacingTop=-1;spacingLeft=3;spacingRight=3;rotatable=0;labelPosition=right;points=[];portConstraint=eastwest;strokeColor=inherit;" vertex="1" parent="Q639SRxSiKA4uDhJdXRe-17">
          <mxGeometry y="52" width="160" height="8" as="geometry" />
        </mxCell>
        <mxCell id="Q639SRxSiKA4uDhJdXRe-20" value="+ Som() : override string" style="text;strokeColor=none;fillColor=none;align=left;verticalAlign=top;spacingLeft=4;spacingRight=4;overflow=hidden;rotatable=0;points=[[0,0.5],[1,0.5]];portConstraint=eastwest;whiteSpace=wrap;html=1;" vertex="1" parent="Q639SRxSiKA4uDhJdXRe-17">
          <mxGeometry y="60" width="160" height="26" as="geometry" />
        </mxCell>
        <mxCell id="Q639SRxSiKA4uDhJdXRe-21" value="Abelha:Animal" style="swimlane;fontStyle=1;align=center;verticalAlign=top;childLayout=stackLayout;horizontal=1;startSize=26;horizontalStack=0;resizeParent=1;resizeParentMax=0;resizeLast=0;collapsible=1;marginBottom=0;whiteSpace=wrap;html=1;" vertex="1" parent="1">
          <mxGeometry x="520" y="320" width="160" height="86" as="geometry" />
        </mxCell>
        <mxCell id="Q639SRxSiKA4uDhJdXRe-22" value="+ field: type" style="text;strokeColor=none;fillColor=none;align=left;verticalAlign=top;spacingLeft=4;spacingRight=4;overflow=hidden;rotatable=0;points=[[0,0.5],[1,0.5]];portConstraint=eastwest;whiteSpace=wrap;html=1;" vertex="1" parent="Q639SRxSiKA4uDhJdXRe-21">
          <mxGeometry y="26" width="160" height="26" as="geometry" />
        </mxCell>
        <mxCell id="Q639SRxSiKA4uDhJdXRe-23" value="" style="line;strokeWidth=1;fillColor=none;align=left;verticalAlign=middle;spacingTop=-1;spacingLeft=3;spacingRight=3;rotatable=0;labelPosition=right;points=[];portConstraint=eastwest;strokeColor=inherit;" vertex="1" parent="Q639SRxSiKA4uDhJdXRe-21">
          <mxGeometry y="52" width="160" height="8" as="geometry" />
        </mxCell>
        <mxCell id="Q639SRxSiKA4uDhJdXRe-24" value="+ Som() : override string" style="text;strokeColor=none;fillColor=none;align=left;verticalAlign=top;spacingLeft=4;spacingRight=4;overflow=hidden;rotatable=0;points=[[0,0.5],[1,0.5]];portConstraint=eastwest;whiteSpace=wrap;html=1;" vertex="1" parent="Q639SRxSiKA4uDhJdXRe-21">
          <mxGeometry y="60" width="160" height="26" as="geometry" />
        </mxCell>
        <mxCell id="Q639SRxSiKA4uDhJdXRe-25" value="&amp;lt;&amp;lt;Interface&amp;gt;&amp;gt;&lt;div&gt;IMamifero&lt;/div&gt;" style="html=1;whiteSpace=wrap;" vertex="1" parent="1">
          <mxGeometry x="359" y="140" width="110" height="50" as="geometry" />
        </mxCell>
        <mxCell id="Q639SRxSiKA4uDhJdXRe-26" value="&amp;lt;&amp;lt;interface&amp;gt;&amp;gt;&lt;div&gt;IVoador&lt;/div&gt;" style="html=1;whiteSpace=wrap;" vertex="1" parent="1">
          <mxGeometry x="359" y="270" width="110" height="50" as="geometry" />
        </mxCell>
        <mxCell id="Q639SRxSiKA4uDhJdXRe-27" value="NumeroDeMamilos" style="html=1;whiteSpace=wrap;" vertex="1" parent="1">
          <mxGeometry x="359" y="210" width="110" height="50" as="geometry" />
        </mxCell>
        <mxCell id="Q639SRxSiKA4uDhJdXRe-28" value="NumeroDeAsas" style="html=1;whiteSpace=wrap;" vertex="1" parent="1">
          <mxGeometry x="359" y="350" width="110" height="50" as="geometry" />
        </mxCell>
        <mxCell id="Q639SRxSiKA4uDhJdXRe-29" value="" style="endArrow=block;dashed=1;endFill=0;endSize=12;html=1;rounded=0;exitX=0.54;exitY=0.969;exitDx=0;exitDy=0;exitPerimeter=0;entryX=1;entryY=0.75;entryDx=0;entryDy=0;" edge="1" parent="1" source="Q639SRxSiKA4uDhJdXRe-12" target="Q639SRxSiKA4uDhJdXRe-25">
          <mxGeometry width="160" relative="1" as="geometry">
            <mxPoint x="520" y="164.5" as="sourcePoint" />
            <mxPoint x="680" y="164.5" as="targetPoint" />
            <Array as="points">
              <mxPoint x="510" y="170" />
            </Array>
          </mxGeometry>
        </mxCell>
        <mxCell id="Q639SRxSiKA4uDhJdXRe-30" value="" style="endArrow=block;dashed=1;endFill=0;endSize=12;html=1;rounded=0;exitX=0.19;exitY=1.154;exitDx=0;exitDy=0;exitPerimeter=0;entryX=1;entryY=0.5;entryDx=0;entryDy=0;" edge="1" parent="1" source="Q639SRxSiKA4uDhJdXRe-16">
          <mxGeometry width="160" relative="1" as="geometry">
            <mxPoint x="689.2" y="19.997999999999976" as="sourcePoint" />
            <mxPoint x="469" y="185.8" as="targetPoint" />
            <Array as="points">
              <mxPoint x="680" y="186" />
            </Array>
          </mxGeometry>
        </mxCell>
        <mxCell id="Q639SRxSiKA4uDhJdXRe-32" value="" style="endArrow=block;dashed=1;endFill=0;endSize=12;html=1;rounded=0;exitX=0.5;exitY=0;exitDx=0;exitDy=0;entryX=0;entryY=0.75;entryDx=0;entryDy=0;" edge="1" parent="1" source="Q639SRxSiKA4uDhJdXRe-17" target="Q639SRxSiKA4uDhJdXRe-25">
          <mxGeometry width="160" relative="1" as="geometry">
            <mxPoint x="170" y="190" as="sourcePoint" />
            <mxPoint x="330" y="190" as="targetPoint" />
            <Array as="points">
              <mxPoint x="240" y="170" />
            </Array>
          </mxGeometry>
        </mxCell>
        <mxCell id="Q639SRxSiKA4uDhJdXRe-33" value="" style="endArrow=block;dashed=1;endFill=0;endSize=12;html=1;rounded=0;" edge="1" parent="1" target="Q639SRxSiKA4uDhJdXRe-26">
          <mxGeometry width="160" relative="1" as="geometry">
            <mxPoint x="290" y="330" as="sourcePoint" />
            <mxPoint x="450" y="330" as="targetPoint" />
            <Array as="points">
              <mxPoint x="290" y="290" />
            </Array>
          </mxGeometry>
        </mxCell>
        <mxCell id="Q639SRxSiKA4uDhJdXRe-34" value="" style="endArrow=block;dashed=1;endFill=0;endSize=12;html=1;rounded=0;exitX=0.25;exitY=0;exitDx=0;exitDy=0;entryX=1;entryY=0.5;entryDx=0;entryDy=0;" edge="1" parent="1" source="Q639SRxSiKA4uDhJdXRe-21" target="Q639SRxSiKA4uDhJdXRe-26">
          <mxGeometry width="160" relative="1" as="geometry">
            <mxPoint x="570" y="280" as="sourcePoint" />
            <mxPoint x="560" y="270" as="targetPoint" />
            <Array as="points">
              <mxPoint x="560" y="295" />
            </Array>
          </mxGeometry>
        </mxCell>
        <mxCell id="Q639SRxSiKA4uDhJdXRe-36" value="" style="edgeStyle=none;html=1;endArrow=block;endFill=0;endSize=12;verticalAlign=bottom;rounded=0;exitX=-0.017;exitY=-0.108;exitDx=0;exitDy=0;exitPerimeter=0;entryX=1;entryY=0.5;entryDx=0;entryDy=0;" edge="1" parent="1" source="Q639SRxSiKA4uDhJdXRe-24" target="Q639SRxSiKA4uDhJdXRe-28">
          <mxGeometry width="160" relative="1" as="geometry">
            <mxPoint x="500" y="490" as="sourcePoint" />
            <mxPoint x="660" y="490" as="targetPoint" />
          </mxGeometry>
        </mxCell>
        <mxCell id="Q639SRxSiKA4uDhJdXRe-37" value="" style="edgeStyle=none;html=1;endArrow=block;endFill=0;endSize=12;verticalAlign=bottom;rounded=0;" edge="1" parent="1" target="Q639SRxSiKA4uDhJdXRe-28">
          <mxGeometry width="160" relative="1" as="geometry">
            <mxPoint x="290" y="380" as="sourcePoint" />
            <mxPoint x="450" y="380" as="targetPoint" />
          </mxGeometry>
        </mxCell>
        <mxCell id="Q639SRxSiKA4uDhJdXRe-38" value="" style="edgeStyle=none;html=1;endArrow=block;endFill=0;endSize=12;verticalAlign=bottom;rounded=0;exitX=0.41;exitY=1.031;exitDx=0;exitDy=0;exitPerimeter=0;entryX=1;entryY=0.5;entryDx=0;entryDy=0;" edge="1" parent="1" source="Q639SRxSiKA4uDhJdXRe-16" target="Q639SRxSiKA4uDhJdXRe-27">
          <mxGeometry width="160" relative="1" as="geometry">
            <mxPoint x="660" y="209" as="sourcePoint" />
            <mxPoint x="820" y="209" as="targetPoint" />
            <Array as="points">
              <mxPoint x="716" y="240" />
            </Array>
          </mxGeometry>
        </mxCell>
        <mxCell id="Q639SRxSiKA4uDhJdXRe-39" value="" style="edgeStyle=none;html=1;endArrow=block;endFill=0;endSize=12;verticalAlign=bottom;rounded=0;exitX=0.865;exitY=1.154;exitDx=0;exitDy=0;exitPerimeter=0;entryX=1;entryY=0.25;entryDx=0;entryDy=0;" edge="1" parent="1" source="Q639SRxSiKA4uDhJdXRe-12" target="Q639SRxSiKA4uDhJdXRe-27">
          <mxGeometry width="160" relative="1" as="geometry">
            <mxPoint x="370" y="240" as="sourcePoint" />
            <mxPoint x="530" y="240" as="targetPoint" />
            <Array as="points">
              <mxPoint x="600" y="210" />
            </Array>
          </mxGeometry>
        </mxCell>
        <mxCell id="Q639SRxSiKA4uDhJdXRe-40" value="" style="edgeStyle=none;html=1;endArrow=block;endFill=0;endSize=12;verticalAlign=bottom;rounded=0;exitX=0.695;exitY=0.033;exitDx=0;exitDy=0;exitPerimeter=0;entryX=0;entryY=0.5;entryDx=0;entryDy=0;" edge="1" parent="1" source="Q639SRxSiKA4uDhJdXRe-17" target="Q639SRxSiKA4uDhJdXRe-27">
          <mxGeometry width="160" relative="1" as="geometry">
            <mxPoint x="240" y="310" as="sourcePoint" />
            <mxPoint x="530" y="240" as="targetPoint" />
            <Array as="points">
              <mxPoint x="240" y="235" />
            </Array>
          </mxGeometry>
        </mxCell>
      </root>
    </mxGraphModel>
  </diagram>
</mxfile>
